# xmcd CD database file
#
# Track frame offsets:
#	150
#	11922
#	24519
#	36522
#	48747
#	62097
#	76720
#	90747
#	103647
#	118422
#	130720
#	142722
#	154347
#	165072
#	176397
#	188395
#	199797
#	214645
#	228372
#	248322
#
# Disc length: 3511 seconds
#
# Revision: 1
# Processed by: cddbd v1.4PL0 Copyright (c) Steve Scherf et al.
# Submitted via: CDex 1.50
#
DISCID=f80db514
DTITLE=Seppo Hanski - Dona Dona
DYEAR=1900
DGENRE=Salsa
TTITLE0=Dona dona
TTITLE1=Tummatukka
TTITLE2=Erehdyin kerran
TTITLE3=Minä soitan sulle illalla
TTITLE4=Painan vain pääni
TTITLE5=Muista minua
TTITLE6=Toiveajattelua
TTITLE7=Lilie
TTITLE8=Mustat enkelit
TTITLE9=Tumman rukous
TTITLE10=Anneli anneli anneli
TTITLE11=Sua hyväilen
TTITLE12=Kun sydän rakastaa
TTITLE13=Minä olen nuori
TTITLE14=Lista-eeva
TTITLE15=Kainuun tyttö
TTITLE16=Isabella
TTITLE17=Muistatko sen
TTITLE18=Annan ja pentin laulu
TTITLE19=Kulkurin humppa
EXTD=
EXTT0=
EXTT1=
EXTT2=
EXTT3=
EXTT4=
EXTT5=
EXTT6=
EXTT7=
EXTT8=
EXTT9=
EXTT10=
EXTT11=
EXTT12=
EXTT13=
EXTT14=
EXTT15=
EXTT16=
EXTT17=
EXTT18=
EXTT19=
PLAYORDER=
